<svg width="101" height="40" viewBox="0 0 101 40" fill="none" xmlns="http://www.w3.org/2000/svg">
<path d="M0 16C0 7.16344 7.16344 0 16 0H24C32.8366 0 40 7.16344 40 16V24C40 32.8366 32.8366 40 24 40H16C7.16344 40 0 32.8366 0 24V16Z" fill="url(#paint0_linear_1_358)"/>
<path d="M13.4979 26.5H10.2024L15.2237 11.9545H19.1868L24.201 26.5H20.9055L17.2621 15.2784H17.1484L13.4979 26.5ZM13.2919 20.7827H21.076V23.1832H13.2919V20.7827ZM29.027 11.9545V26.5H25.9517V11.9545H29.027Z" fill="white"/>
<path d="M50.358 26.5H48.5114L53.8523 11.9545H55.6705L61.0114 26.5H59.1648L54.8182 14.2557H54.7045L50.358 26.5ZM51.0398 20.8182H58.483V22.3807H51.0398V20.8182ZM64.5384 11.9545V26.5H62.777V11.9545H64.5384ZM82.6381 16.5C82.4819 16.0218 82.2759 15.5933 82.0202 15.2145C81.7693 14.831 81.4686 14.5043 81.1183 14.2344C80.7726 13.9645 80.3796 13.7585 79.9393 13.6165C79.4989 13.4744 79.016 13.4034 78.4904 13.4034C77.6287 13.4034 76.8451 13.6259 76.1396 14.071C75.4341 14.5161 74.873 15.1719 74.4563 16.0384C74.0397 16.9048 73.8313 17.9678 73.8313 19.2273C73.8313 20.4867 74.042 21.5497 74.4634 22.4162C74.8848 23.2827 75.4554 23.9384 76.1751 24.3835C76.8948 24.8286 77.7044 25.0511 78.604 25.0511C79.4374 25.0511 80.1713 24.8736 80.8058 24.5185C81.445 24.1586 81.9421 23.652 82.2972 22.9986C82.6571 22.3404 82.837 21.5663 82.837 20.6761L83.3768 20.7898H79.0018V19.2273H84.5415V20.7898C84.5415 21.9877 84.2859 23.0294 83.7745 23.9148C83.2679 24.8002 82.5671 25.4867 81.6722 25.9744C80.7821 26.4574 79.7594 26.6989 78.604 26.6989C77.3162 26.6989 76.1845 26.3958 75.2092 25.7898C74.2385 25.1837 73.4809 24.322 72.9364 23.2045C72.3967 22.0871 72.1268 20.7614 72.1268 19.2273C72.1268 18.0767 72.2807 17.0421 72.5884 16.1236C72.9009 15.2003 73.3413 14.4143 73.9094 13.7656C74.4776 13.117 75.15 12.6198 75.9265 12.2741C76.703 11.9285 77.5576 11.7557 78.4904 11.7557C79.2575 11.7557 79.9724 11.8717 80.6353 12.1037C81.3029 12.331 81.8971 12.6553 82.418 13.0767C82.9435 13.4934 83.3815 13.9929 83.7319 14.5753C84.0823 15.1529 84.3237 15.7945 84.4563 16.5H82.6381ZM91.2628 26.7273C90.2779 26.7273 89.4138 26.4929 88.6705 26.0241C87.9318 25.5554 87.3542 24.8996 86.9375 24.0568C86.5256 23.214 86.3196 22.2292 86.3196 21.1023C86.3196 19.9659 86.5256 18.974 86.9375 18.1264C87.3542 17.2789 87.9318 16.6207 88.6705 16.152C89.4138 15.6832 90.2779 15.4489 91.2628 15.4489C92.2476 15.4489 93.1094 15.6832 93.848 16.152C94.5914 16.6207 95.169 17.2789 95.581 18.1264C95.9976 18.974 96.206 19.9659 96.206 21.1023C96.206 22.2292 95.9976 23.214 95.581 24.0568C95.169 24.8996 94.5914 25.5554 93.848 26.0241C93.1094 26.4929 92.2476 26.7273 91.2628 26.7273ZM91.2628 25.2216C92.0109 25.2216 92.6264 25.0298 93.1094 24.6463C93.5923 24.2628 93.9498 23.7585 94.1818 23.1335C94.4138 22.5085 94.5298 21.8314 94.5298 21.1023C94.5298 20.3731 94.4138 19.6937 94.1818 19.0639C93.9498 18.4342 93.5923 17.9252 93.1094 17.5369C92.6264 17.1487 92.0109 16.9545 91.2628 16.9545C90.5147 16.9545 89.8991 17.1487 89.4162 17.5369C88.9332 17.9252 88.5758 18.4342 88.3438 19.0639C88.1117 19.6937 87.9957 20.3731 87.9957 21.1023C87.9957 21.8314 88.1117 22.5085 88.3438 23.1335C88.5758 23.7585 88.9332 24.2628 89.4162 24.6463C89.8991 25.0298 90.5147 25.2216 91.2628 25.2216Z" fill="white"/>
<defs>
<linearGradient id="paint0_linear_1_358" x1="20" y1="0" x2="20" y2="40" gradientUnits="userSpaceOnUse">
<stop stop-color="#0F766E"/>
<stop offset="1" stop-color="#14B8A6"/>
</linearGradient>
</defs>
</svg>
