<svg width="48" height="48" viewBox="0 0 48 48" fill="none" xmlns="http://www.w3.org/2000/svg">
<path d="M22.034 5.62791C22.1197 5.16911 22.3632 4.75474 22.7222 4.45654C23.0813 4.15835 23.5333 3.99512 24 3.99512C24.4668 3.99512 24.9188 4.15835 25.2778 4.45654C25.6369 4.75474 25.8803 5.16911 25.966 5.62791L28.068 16.7439C28.2173 17.5342 28.6014 18.2611 29.1701 18.8298C29.7388 19.3986 30.4657 19.7826 31.256 19.9319L42.372 22.0339C42.8308 22.1196 43.2452 22.3631 43.5434 22.7221C43.8416 23.0811 44.0048 23.5332 44.0048 23.9999C44.0048 24.4666 43.8416 24.9187 43.5434 25.2777C43.2452 25.6368 42.8308 25.8802 42.372 25.9659L31.256 28.0679C30.4657 28.2172 29.7388 28.6013 29.1701 29.17C28.6014 29.7387 28.2173 30.4656 28.068 31.2559L25.966 42.3719C25.8803 42.8307 25.6369 43.2451 25.2778 43.5433C24.9188 43.8415 24.4668 44.0047 24 44.0047C23.5333 44.0047 23.0813 43.8415 22.7222 43.5433C22.3632 43.2451 22.1197 42.8307 22.034 42.3719L19.932 31.2559C19.7827 30.4656 19.3987 29.7387 18.83 29.17C18.2613 28.6013 17.5343 28.2172 16.744 28.0679L5.62803 25.9659C5.16923 25.8802 4.75486 25.6368 4.45667 25.2777C4.15847 24.9187 3.99524 24.4666 3.99524 23.9999C3.99524 23.5332 4.15847 23.0811 4.45667 22.7221C4.75486 22.3631 5.16923 22.1196 5.62803 22.0339L16.744 19.9319C17.5343 19.7826 18.2613 19.3986 18.83 18.8298C19.3987 18.2611 19.7827 17.5342 19.932 16.7439L22.034 5.62791Z" stroke="#0F766E" stroke-width="4" stroke-linecap="round" stroke-linejoin="round"/>
<path d="M40 4V12" stroke="#0F766E" stroke-width="4" stroke-linecap="round" stroke-linejoin="round"/>
<path d="M44 8H36" stroke="#0F766E" stroke-width="4" stroke-linecap="round" stroke-linejoin="round"/>
<path d="M8 44C10.2091 44 12 42.2091 12 40C12 37.7909 10.2091 36 8 36C5.79086 36 4 37.7909 4 40C4 42.2091 5.79086 44 8 44Z" stroke="#0F766E" stroke-width="4" stroke-linecap="round" stroke-linejoin="round"/>
</svg>
